<svg width="162" height="162" viewBox="0 0 162 162" fill="none" xmlns="http://www.w3.org/2000/svg">
<path d="M127.892 13.9246C120.56 8.94754 112.518 5.10435 104.039 2.52434C69.8104 -5.28494 42.2729 5.03767 22.105 33.3131C14.952 43.8533 10.9805 56.225 10.6623 68.9549C10.3431 81.6861 13.6921 94.2405 20.3091 105.125C26.8596 115.238 36.6147 122.866 48.0155 126.787C59.4154 130.709 71.8033 130.699 83.1969 126.757C94.7432 122.991 103.665 113.741 107.004 102.072C111.226 84.7034 107.767 63.2944 90.2481 57.192C79.4676 53.5121 72.5495 61.3214 67.4734 67.021C62.3973 72.7206 61.0944 73.3945 59.6121 72.3622L59.6132 72.3611C57.7712 71.0976 56.3567 69.3067 55.5545 67.2238C54.7525 65.1399 54.6013 62.8633 55.1213 60.6925C57.903 51.5813 64.9374 44.3861 73.9875 41.3926H74.4365C84.8751 37.466 96.5638 38.7676 105.881 44.8933C112.191 48.9529 117.536 54.3425 121.54 60.6844C125.545 67.0274 128.111 74.1684 129.06 81.6072C130.68 93.713 128.85 106.03 123.781 117.145C118.711 128.259 110.608 137.721 100.401 144.441C87.8847 151.199 73.7212 154.309 59.5225 153.417C38.8751 150.821 20.0384 140.333 6.96558 124.155C6.3226 123.357 5.38862 122.847 4.36887 122.738C3.35028 122.629 2.32828 122.928 1.53077 123.572C0.723098 124.239 0.191812 125.184 0.0429198 126.22C-0.105972 127.257 0.135417 128.313 0.722001 129.181C6.94075 138.107 15.0097 145.588 24.3813 151.118C33.7528 156.648 44.2062 160.095 55.0317 161.227L59.2089 161.586H59.21C70.2669 162.742 81.4421 161.469 91.957 157.862C96.2603 156.239 100.385 154.178 104.265 151.712C109.841 148.701 115.029 145.024 119.718 140.761C120.661 139.864 121.605 139.011 122.503 138.068C129.396 130.839 134.627 122.195 137.831 112.738C141.035 103.281 142.136 93.2384 141.055 83.3136C140.278 72.2604 136.94 61.5399 131.303 51.9969C125.667 42.4541 117.887 34.3529 108.577 28.3319C100.263 24.0773 90.9181 22.2425 81.6106 23.036C72.3023 23.8294 63.4043 27.2196 55.9311 32.8199C48.5177 37.9909 42.6925 45.1207 39.1065 53.4124C35.5205 61.7041 34.3158 70.8299 35.6265 79.7665C36.8843 88.7423 43.2181 96.3727 54.4488 102.207H54.4477C59.0906 104.812 64.3697 106.066 69.6883 105.829C75.0081 105.59 80.1541 103.87 84.5443 100.862C89.8447 97.3283 93.1737 91.5092 93.5289 85.1527C93.9971 87.87 93.9971 90.6483 93.5289 93.3656C92.5261 98.6875 90.1312 103.65 86.5894 107.749C83.0476 111.848 78.4835 114.938 73.3601 116.705C66.3313 119.039 58.7363 119.039 51.7078 116.705C43.3131 113.592 36.369 107.484 32.2121 99.56C30.4907 96.4064 28.9894 93.1368 27.7202 89.7749C21.9401 76.301 21.427 61.151 26.2831 47.3181C30.062 37.7382 36.2753 29.31 44.3101 22.8631C52.3461 16.4174 61.9242 12.1764 72.1023 10.5589C92.2365 7.88551 112.635 12.9731 129.15 24.7867C141.794 34.3745 150.626 48.1303 154.08 63.6081C154.468 65.7146 156.45 67.1402 158.572 66.8393C160.814 66.4516 162.321 64.3248 161.941 62.0821C160.135 52.0557 156.151 42.5467 150.267 34.2256C144.385 25.9045 136.747 18.9744 127.892 13.924L127.892 13.9246Z" fill="#9F40FF"/>
</svg>
