<svg width="96" height="38" viewBox="0 0 96 38" fill="none" xmlns="http://www.w3.org/2000/svg">
<path d="M29.8275 3.25033C28.1174 2.08856 26.2419 1.19147 24.2643 0.58924C16.2814 -1.23363 9.85905 1.17591 5.1554 7.77604C3.48717 10.2364 2.56092 13.1242 2.4867 16.0957C2.41224 19.0674 3.19332 21.9979 4.73656 24.5385C6.2643 26.8992 8.53941 28.6797 11.1983 29.5949C13.8571 30.5105 16.7462 30.5081 19.4035 29.5881C22.0963 28.7089 24.1771 26.5498 24.9558 23.8261C25.9405 19.7717 25.1339 14.7744 21.048 13.3499C18.5337 12.491 16.9202 14.3138 15.7364 15.6442C14.5525 16.9747 14.2486 17.132 13.9029 16.891L13.9032 16.8907C13.4736 16.5958 13.1437 16.1778 12.9566 15.6916C12.7696 15.2052 12.7343 14.6737 12.8556 14.167C13.5044 12.0403 15.1449 10.3607 17.2556 9.66198H17.3603C19.7949 8.74543 22.521 9.04926 24.694 10.4791C26.1657 11.4267 27.4121 12.6848 28.3461 14.1651C29.28 15.6457 29.8785 17.3126 30.0998 19.049C30.4776 21.8748 30.0509 24.75 28.8686 27.3444C27.6863 29.9386 25.7963 32.1472 23.4159 33.7159C20.4968 35.2934 17.1935 36.0192 13.882 35.8111C9.06659 35.2052 4.67342 32.7569 1.62454 28.9805C1.47458 28.7943 1.25675 28.6754 1.01892 28.6498C0.781364 28.6243 0.543009 28.6943 0.357012 28.8445C0.168643 29.0003 0.044735 29.2207 0.0100099 29.4628C-0.0247152 29.7048 0.0315825 29.9513 0.168388 30.1539C1.61875 32.2373 3.50061 33.9836 5.68628 35.2745C7.87196 36.5652 10.3099 37.3699 12.8347 37.6341L13.8089 37.718H13.8092C16.3879 37.9877 18.9942 37.6906 21.4465 36.8485C22.4502 36.4697 23.412 35.9888 24.317 35.4132C25.6174 34.7102 26.8276 33.852 27.921 32.8568C28.1409 32.6474 28.3611 32.4483 28.5705 32.2283C30.1782 30.5409 31.3981 28.5231 32.1455 26.3156C32.8927 24.1081 33.1494 21.764 32.8974 19.4473C32.7162 16.8673 31.9377 14.3648 30.6231 12.1373C29.3084 9.90977 27.494 8.01875 25.3228 6.61331C23.3836 5.62018 21.2042 5.19191 19.0335 5.37712C16.8626 5.56233 14.7874 6.35368 13.0444 7.66092C11.3155 8.86795 9.9569 10.5322 9.12057 12.4677C8.28423 14.4032 8.00325 16.5333 8.30894 18.6193C8.60228 20.7145 10.0795 22.4956 12.6987 23.8575H12.6985C13.7813 24.4655 15.0125 24.7583 16.253 24.7028C17.4937 24.6471 18.6938 24.2456 19.7177 23.5434C20.9539 22.7187 21.7303 21.3604 21.8131 19.8766C21.9223 20.5109 21.9223 21.1594 21.8131 21.7937C21.5793 23.0359 21.0207 24.1943 20.1947 25.1512C19.3687 26.108 18.3042 26.8291 17.1093 27.2416C15.47 27.7864 13.6987 27.7864 12.0595 27.2416C10.1016 26.515 8.4821 25.0893 7.51262 23.2396C7.11116 22.5035 6.761 21.7403 6.46501 20.9555C5.11695 17.8104 4.99727 14.274 6.12984 11.0451C7.01116 8.80895 8.46024 6.84162 10.3342 5.33678C12.2083 3.83221 14.4422 2.84224 16.816 2.46469C21.5117 1.84066 26.269 3.02821 30.1207 5.7858C33.0696 8.0238 35.1295 11.2347 35.9351 14.8476C36.0256 15.3393 36.4878 15.6721 36.9827 15.6018C37.5057 15.5113 37.8572 15.0149 37.7685 14.4914C37.3473 12.151 36.4181 9.93139 35.0459 7.98905C33.6739 6.04671 31.8926 4.42905 29.8274 3.25018L29.8275 3.25033Z" fill="#9F40FF"/>
<path d="M47.5384 16.0533C47.1959 16.0533 46.8978 15.9392 46.6442 15.7108C46.3905 15.4825 46.2636 15.2098 46.2636 14.8927V3.89523C46.2636 3.57811 46.3841 3.3054 46.6251 3.07708C46.8788 2.84876 47.1832 2.7346 47.5384 2.7346H52.6566C53.8743 2.7346 54.8447 3.07708 55.5677 3.76204C56.3034 4.43432 56.6713 5.34126 56.6713 6.48286C56.6713 7.0283 56.5254 7.54836 56.2336 8.04306C55.9419 8.52507 55.555 8.89926 55.073 9.16563V9.22271C55.7326 9.45104 56.2527 9.82523 56.6332 10.3453C57.0264 10.8654 57.223 11.4615 57.223 12.1338C57.223 12.8949 57.0454 13.5735 56.6903 14.1697C56.3351 14.7658 55.8404 15.2288 55.2062 15.5586C54.572 15.8884 53.849 16.0533 53.0371 16.0533H47.5384ZM52.6186 8.32846C53.0371 8.32846 53.3923 8.15722 53.6841 7.81473C53.9885 7.47225 54.1407 7.06001 54.1407 6.578C54.1407 6.05793 54.0012 5.64569 53.7221 5.34126C53.4557 5.03683 53.0879 4.88462 52.6186 4.88462H48.7371V8.32846H52.6186ZM52.9991 13.9033C53.5192 13.9033 53.9314 13.7511 54.2358 13.4467C54.5403 13.1295 54.6925 12.6983 54.6925 12.1528C54.6925 11.6201 54.5403 11.2078 54.2358 10.9161C53.9441 10.6117 53.5318 10.4595 52.9991 10.4595H48.7371V13.9033H52.9991Z" fill="black"/>
<path d="M63.9557 8.42359C63.2073 8.42359 62.5984 8.62654 62.1291 9.03245C61.6598 9.42567 61.4251 9.92036 61.4251 10.5165V14.7785C61.4251 15.2859 61.2348 15.6538 60.8543 15.8821C60.4738 16.1104 59.8776 16.2246 59.0658 16.2246V8.19527C59.0658 7.61178 59.2497 7.16148 59.6176 6.84437C59.9981 6.52726 60.5689 6.3687 61.33 6.3687V7.49128C61.1397 7.70692 60.9875 7.91621 60.8733 8.11916L60.9875 8.19527C61.7866 6.97756 62.7887 6.3687 63.9937 6.3687C64.5392 6.3687 64.9514 6.51457 65.2305 6.80632C65.5095 7.08538 65.649 7.44054 65.649 7.87182C65.649 8.20161 65.5603 8.48067 65.3827 8.70899C65.0402 8.51872 64.5645 8.42359 63.9557 8.42359Z" fill="black"/>
<path d="M69.5822 16.2246C68.9353 16.2246 68.3392 16.0977 67.7937 15.844C67.261 15.5903 66.8297 15.2288 66.4999 14.7595C66.1828 14.2775 66.0242 13.7067 66.0242 13.0471C66.0242 12.3875 66.1955 11.8167 66.538 11.3347C66.8804 10.84 67.3434 10.4658 67.9269 10.2121C68.5231 9.94573 69.1763 9.81254 69.8867 9.81254C70.4701 9.81254 70.9902 9.90768 71.4469 10.0979C71.9162 10.2755 72.3475 10.5482 72.7407 10.9161L72.8358 10.821C72.7216 10.7068 72.525 10.5356 72.246 10.3072V9.9267C72.246 9.40664 72.0621 8.99439 71.6942 8.68997C71.3264 8.38554 70.8126 8.23332 70.153 8.23332C68.9734 8.23332 68.1045 8.6646 67.5464 9.52714C67.2673 9.43835 67.0326 9.29882 66.8424 9.10855C66.6521 8.9056 66.557 8.68997 66.557 8.46164C66.557 8.08111 66.7282 7.73229 67.0707 7.41517C67.4132 7.09806 67.8762 6.84437 68.4597 6.6541C69.0431 6.46384 69.6774 6.3687 70.3623 6.3687C71.7069 6.3687 72.747 6.68582 73.4827 7.32004C74.2184 7.94158 74.5863 8.79144 74.5863 9.86962V14.6263C74.5863 15.1844 74.4087 15.5903 74.0535 15.844C73.6984 16.0977 73.1402 16.2246 72.3792 16.2246V15.4445C72.5948 15.2288 72.7407 15.0703 72.8168 14.9688L72.7407 14.8737C72.3221 15.3176 71.8718 15.6538 71.3898 15.8821C70.9204 16.1104 70.3179 16.2246 69.5822 16.2246ZM70.1911 14.4931C70.8507 14.4931 71.3644 14.3663 71.7323 14.1126C72.1001 13.8589 72.284 13.4974 72.284 13.0281C72.284 12.5714 72.0938 12.2099 71.7132 11.9435C71.3454 11.6772 70.8443 11.544 70.2101 11.544C69.6266 11.544 69.1636 11.6772 68.8212 11.9435C68.4914 12.1972 68.3265 12.5587 68.3265 13.0281C68.3265 13.5101 68.4914 13.8779 68.8212 14.1316C69.151 14.3726 69.6076 14.4931 70.1911 14.4931Z" fill="black"/>
<path d="M76.7176 8.19527C76.7176 7.61178 76.9015 7.16148 77.2693 6.84437C77.6499 6.52726 78.2207 6.3687 78.9817 6.3687V7.51031C78.8295 7.68789 78.6773 7.89084 78.5251 8.11916L78.6393 8.19527C79.0198 7.62447 79.5081 7.18051 80.1043 6.8634C80.7005 6.5336 81.3601 6.3687 82.0831 6.3687C82.73 6.3687 83.3008 6.51457 83.7955 6.80632C84.2902 7.09806 84.6707 7.49762 84.9371 8.005C85.2162 8.51238 85.3557 9.08318 85.3557 9.71741V14.7785C85.3557 15.2859 85.1591 15.6538 84.7659 15.8821C84.3727 16.1104 83.7765 16.2246 82.9774 16.2246V10.0599C82.9774 9.57788 82.8315 9.18466 82.5397 8.88023C82.2607 8.5758 81.8484 8.42359 81.303 8.42359C80.6561 8.42359 80.1233 8.62654 79.7048 9.03245C79.2862 9.42567 79.0769 9.92036 79.0769 10.5165V14.7785C79.0769 15.2859 78.8866 15.6538 78.5061 15.8821C78.1255 16.1104 77.5294 16.2246 76.7176 16.2246V8.19527Z" fill="black"/>
<path d="M90.9768 16.2246C90.2918 16.2246 89.6766 16.0787 89.1312 15.7869C88.5857 15.4952 88.1545 15.0956 87.8374 14.5883C87.5202 14.0682 87.3617 13.472 87.3617 12.7997V9.79352C87.3617 9.13392 87.5266 8.54409 87.8564 8.02403C88.1862 7.50396 88.6428 7.09806 89.2263 6.80632C89.8225 6.51457 90.4821 6.3687 91.2051 6.3687C91.6744 6.3687 92.1564 6.47018 92.6511 6.67313C93.1585 6.8634 93.5834 7.12343 93.9259 7.45323L94.002 7.35809C93.9386 7.25662 93.7991 7.12977 93.5834 6.97756V4.1616C93.5834 3.65422 93.78 3.261 94.1733 2.98194C94.5792 2.70288 95.188 2.56335 95.9998 2.56335V14.5883C95.9998 15.0576 95.8222 15.4508 95.4671 15.7679C95.1119 16.0723 94.5601 16.2246 93.8117 16.2246V15.1781C93.9766 14.9751 94.0971 14.8102 94.1733 14.6834L94.0781 14.6073C93.6849 15.14 93.2473 15.5459 92.7653 15.825C92.2959 16.0914 91.6998 16.2246 90.9768 16.2246ZM91.6808 14.1697C92.2516 14.1697 92.7145 14.0365 93.0697 13.7701C93.4376 13.491 93.6215 13.1422 93.6215 12.7236V9.8506C93.6215 9.44469 93.4376 9.10855 93.0697 8.84218C92.7145 8.56312 92.2452 8.42359 91.6617 8.42359C91.0402 8.42359 90.5582 8.55678 90.2157 8.82315C89.8859 9.07684 89.721 9.44469 89.721 9.9267V12.6285C89.721 13.1359 89.8859 13.5228 90.2157 13.7891C90.5582 14.0428 91.0465 14.1697 91.6808 14.1697Z" fill="black"/>
<path d="M51.7433 37.154C50.6144 37.154 49.606 36.9383 48.7181 36.5071C47.8428 36.0758 47.1579 35.4733 46.6632 34.6995C46.1685 33.9258 45.9211 33.0442 45.9211 32.0548V28.5539C45.9211 27.5645 46.1621 26.6893 46.6442 25.9282C47.1389 25.1544 47.8175 24.5583 48.68 24.1397C49.5426 23.7084 50.532 23.4928 51.6482 23.4928C52.7644 23.4928 53.7538 23.664 54.6164 24.0065C55.4916 24.3363 56.1702 24.7993 56.6522 25.3954C57.1342 25.9916 57.3752 26.6766 57.3752 27.4503C57.3752 27.9197 57.2167 28.2875 56.8996 28.5539C56.5951 28.8203 56.1829 28.9534 55.6628 28.9534C55.4091 28.9534 55.1301 28.9154 54.8257 28.8393C54.851 28.5349 54.8637 28.2368 54.8637 27.945C54.8637 27.2727 54.5656 26.7273 53.9695 26.3087C53.3733 25.8901 52.5995 25.6808 51.6482 25.6808C50.7095 25.6808 49.9421 25.9472 49.346 26.48C48.7625 27.0127 48.4707 27.704 48.4707 28.5539V32.0548C48.4707 32.9047 48.7752 33.6023 49.384 34.1477C49.9929 34.6932 50.7793 34.9659 51.7433 34.9659C52.682 34.9659 53.443 34.7503 54.0265 34.319C54.6227 33.875 54.9208 33.3042 54.9208 32.6066V32.0167H53.2845C52.8025 32.0167 52.4093 31.8328 52.1048 31.465C51.8004 31.0844 51.6482 30.5961 51.6482 29.9999H56.2717C56.6269 29.9999 56.9123 30.1077 57.1279 30.3234C57.3435 30.539 57.4513 30.8244 57.4513 31.1796V32.6637C57.4513 33.5389 57.2103 34.319 56.7283 35.0039C56.2463 35.6762 55.5677 36.2026 54.6925 36.5832C53.8299 36.9637 52.8469 37.154 51.7433 37.154Z" fill="black"/>
<path d="M62.9907 37.154C62.2042 37.154 61.4875 37.0018 60.8406 36.6973C60.1937 36.3802 59.68 35.9553 59.2995 35.4225C58.9189 34.8771 58.7287 34.2682 58.7287 33.596V31.0654C58.7287 30.3551 58.9253 29.7145 59.3185 29.1437C59.7117 28.5729 60.2318 28.1226 60.8787 27.7928C61.5383 27.463 62.2486 27.2981 63.0097 27.2981C63.7581 27.2981 64.443 27.4567 65.0646 27.7738C65.6988 28.0782 66.1998 28.5095 66.5677 29.0676C66.9355 29.613 67.1195 30.2409 67.1195 30.9513V32.0167C67.1195 32.2958 67.0116 32.5305 66.796 32.7207C66.5931 32.911 66.333 33.0061 66.0159 33.0061H61.0309V33.4247C61.0309 33.9702 61.1958 34.4141 61.5256 34.7566C61.8554 35.0991 62.3501 35.2703 63.0097 35.2703C63.6439 35.2703 64.1132 35.1308 64.4177 34.8517C64.7348 34.5727 64.8933 34.2112 64.8933 33.7672C65.1217 33.7418 65.2802 33.7292 65.369 33.7292C65.8383 33.7292 66.2062 33.837 66.4725 34.0526C66.7389 34.2556 66.8721 34.5473 66.8721 34.9278C66.8721 35.2957 66.7009 35.6509 66.3584 35.9933C66.0159 36.3358 65.5466 36.6149 64.9504 36.8305C64.3542 37.0462 63.701 37.154 62.9907 37.154ZM64.9694 31.3128V30.9513C64.9694 30.4185 64.7855 29.9872 64.4177 29.6574C64.0498 29.3276 63.5741 29.1627 62.9907 29.1627C62.4072 29.1627 61.9315 29.3276 61.5637 29.6574C61.2085 29.9745 61.0309 30.4058 61.0309 30.9513V31.3128H64.9694Z" fill="black"/>
<path d="M68.9508 29.1247C68.9508 28.5412 69.1347 28.0909 69.5026 27.7738C69.8831 27.4567 70.4539 27.2981 71.215 27.2981V28.4397C71.0628 28.6173 70.9105 28.8203 70.7583 29.0486L70.8725 29.1247C71.253 28.5539 71.7414 28.1099 72.3375 27.7928C72.9337 27.463 73.5933 27.2981 74.3163 27.2981C74.9632 27.2981 75.534 27.444 76.0287 27.7357C76.5234 28.0275 76.904 28.427 77.1703 28.9344C77.4494 29.4418 77.5889 30.0126 77.5889 30.6468V35.7079C77.5889 36.2153 77.3923 36.5832 76.9991 36.8115C76.6059 37.0398 76.0097 37.154 75.2106 37.154V30.9893C75.2106 30.5073 75.0647 30.1141 74.773 29.8096C74.4939 29.5052 74.0817 29.353 73.5362 29.353C72.8893 29.353 72.3566 29.556 71.938 29.9619C71.5194 30.3551 71.3101 30.8498 71.3101 31.4459V35.7079C71.3101 36.2153 71.1198 36.5832 70.7393 36.8115C70.3588 37.0398 69.7626 37.154 68.9508 37.154V29.1247Z" fill="black"/>
<path d="M81.2883 26.4039C80.8316 26.4039 80.4511 26.2707 80.1467 26.0043C79.8549 25.7252 79.7091 25.3701 79.7091 24.9388C79.7091 24.5202 79.8549 24.1777 80.1467 23.9114C80.4511 23.6323 80.8316 23.4928 81.2883 23.4928C81.7449 23.4928 82.1191 23.6323 82.4109 23.9114C82.7153 24.1777 82.8675 24.5202 82.8675 24.9388C82.8675 25.3701 82.7153 25.7252 82.4109 26.0043C82.1191 26.2707 81.7449 26.4039 81.2883 26.4039ZM80.0896 28.7441C80.0896 28.2241 80.2862 27.8562 80.6794 27.6406C81.0727 27.4123 81.6688 27.2981 82.4679 27.2981V35.7079C82.4679 36.2153 82.2713 36.5832 81.8781 36.8115C81.4849 37.0398 80.8887 37.154 80.0896 37.154V28.7441Z" fill="black"/>
<path d="M89.2639 37.154C88.4775 37.154 87.7608 37.0018 87.1139 36.6973C86.467 36.3802 85.9533 35.9553 85.5727 35.4225C85.1922 34.8771 85.0019 34.2682 85.0019 33.596V31.0654C85.0019 30.3551 85.1985 29.7145 85.5918 29.1437C85.985 28.5729 86.505 28.1226 87.1519 27.7928C87.8115 27.463 88.5219 27.2981 89.2829 27.2981C90.0313 27.2981 90.7163 27.4567 91.3378 27.7738C91.972 28.0782 92.4731 28.5095 92.8409 29.0676C93.2088 29.613 93.3927 30.2409 93.3927 30.9513V32.0167C93.3927 32.2958 93.2849 32.5305 93.0693 32.7207C92.8663 32.911 92.6063 33.0061 92.2892 33.0061H87.3042V33.4247C87.3042 33.9702 87.4691 34.4141 87.7989 34.7566C88.1286 35.0991 88.6233 35.2703 89.2829 35.2703C89.9172 35.2703 90.3865 35.1308 90.6909 34.8517C91.008 34.5727 91.1666 34.2112 91.1666 33.7672C91.3949 33.7418 91.5535 33.7292 91.6423 33.7292C92.1116 33.7292 92.4794 33.837 92.7458 34.0526C93.0122 34.2556 93.1454 34.5473 93.1454 34.9278C93.1454 35.2957 92.9741 35.6509 92.6316 35.9933C92.2892 36.3358 91.8198 36.6149 91.2237 36.8305C90.6275 37.0462 89.9742 37.154 89.2639 37.154ZM91.2427 31.3128V30.9513C91.2427 30.4185 91.0588 29.9872 90.6909 29.6574C90.3231 29.3276 89.8474 29.1627 89.2639 29.1627C88.6804 29.1627 88.2048 29.3276 87.8369 29.6574C87.4817 29.9745 87.3042 30.4058 87.3042 30.9513V31.3128H91.2427Z" fill="black"/>
</svg>
